# xmcd
#
# Track frame offsets:
#	150
#	20859
#	40481
#	52399
#	72547
#	86078
#	103019
#	119138
#	135828
#	153402
#	169026
#	186235
#
# Disc length: 2654 seconds
#
# Revision: 0
# Processed by: cddbd v1.5PL3 Copyright (c) Steve Scherf et al.
# Submitted via: dBpowerAMP V4.0
#
DISCID=b50a5c0c
DTITLE=Garth Brooks - The Hits(missing some songs)
DYEAR=1900
DGENRE=
TTITLE0=Ain't Going Down ('Til the Sun Comes Up)
TTITLE1=Friend In Low Places
TTITLE2=Callin Baton Rouge
TTITLE3=The River
TTITLE4=Much Too Young (To Feel This Damn Old)
TTITLE5=The Thunder Rolls 
TTITLE6=American Honky-Tonk Bar Association 
TTITLE7=If Tomorrow Never Comes 
TTITLE8=Standing Outside The Fire 
TTITLE9=What She's Doing Now 
TTITLE10=We Shall Be Free
TTITLE11=Papa Loved Mama 
EXTD=it Garths the hits missing  6 songs
EXTT0=
EXTT1=
EXTT2=
EXTT3=
EXTT4=
EXTT5=
EXTT6=
EXTT7=
EXTT8=
EXTT9=
EXTT10=
EXTT11=
PLAYORDER=
